<?xml version="1.0" encoding="UTF-8" standalone="no"?>
<svg
   xmlns:dc="http://purl.org/dc/elements/1.1/"
   xmlns:cc="http://creativecommons.org/ns#"
   xmlns:rdf="http://www.w3.org/1999/02/22-rdf-syntax-ns#"
   xmlns:svg="http://www.w3.org/2000/svg"
   xmlns="http://www.w3.org/2000/svg"
   xmlns:sodipodi="http://sodipodi.sourceforge.net/DTD/sodipodi-0.dtd"
   xmlns:inkscape="http://www.inkscape.org/namespaces/inkscape"
   version="1.1"
   id="Layer_1"
   x="0px"
   y="0px"
   width="400"
   height="400"
   viewBox="0 0 400 400.00001"
   enable-background="new 0 0 1004.331 368.732"
   xml:space="preserve"
   sodipodi:docname="favicon.svg"
   inkscape:version="1.0.1 (3bc2e813f5, 2020-09-07)"
   inkscape:export-filename="/home/sati/Workspace/code/liberovitae/ui/public/favicon.png"
   inkscape:export-xdpi="19.120001"
   inkscape:export-ydpi="19.120001"><metadata
   id="metadata962"><rdf:RDF><cc:Work
       rdf:about=""><dc:format>image/svg+xml</dc:format><dc:type
         rdf:resource="http://purl.org/dc/dcmitype/StillImage" /><dc:title></dc:title></cc:Work></rdf:RDF></metadata><defs
   id="defs960" /><sodipodi:namedview
   pagecolor="#ffffff"
   bordercolor="#666666"
   borderopacity="1"
   objecttolerance="10"
   gridtolerance="10"
   guidetolerance="10"
   inkscape:pageopacity="0"
   inkscape:pageshadow="2"
   inkscape:window-width="1920"
   inkscape:window-height="1049"
   id="namedview958"
   showgrid="false"
   inkscape:zoom="1.4298075"
   inkscape:cx="241.71306"
   inkscape:cy="184.366"
   inkscape:window-x="0"
   inkscape:window-y="0"
   inkscape:window-maximized="1"
   inkscape:current-layer="Layer_1"
   inkscape:document-rotation="0" />
<path
   fill="#005870"
   d="m 40.813001,159.70705 c 146.168519,-77.959982 167.649219,7.43834 165.223719,24.9711 25.66102,-22.03788 194.36931,-80.208 172.70315,34.28647 -7.82243,4.09196 0,0 -7.24197,3.81301 -6.43671,-115.76378 -172.79915,-29.73153 -172.79915,-29.73153 0,0 -6.05228,-95.430915 -160.315608,-28.02652"
   id="path953"
   style="fill:#2d5f88;fill-opacity:1;stroke-width:0.363698" />
<path
   fill="#005870"
   d="m 32.583994,179.09577 c 130.165826,-57.36272 161.573266,4.2698 157.671156,22.67361 149.99643,-66.70064 165.21061,0.98524 164.83563,30.54295 -12.47371,5.76933 -58.29521,26.99797 -63.65538,29.19726 61.3019,-123.65893 -167.45536,-19.57347 -166.51628,-19.01594 0,0 44.26741,-99.26681 -109.535822,-30.46945"
   id="path955"
   style="fill:#2d5f88;fill-opacity:1;stroke-width:0.363698" />
</svg>
