<?xml version="1.0" encoding="UTF-8" standalone="no"?>
<svg
   xmlns:dc="http://purl.org/dc/elements/1.1/"
   xmlns:cc="http://creativecommons.org/ns#"
   xmlns:rdf="http://www.w3.org/1999/02/22-rdf-syntax-ns#"
   xmlns:svg="http://www.w3.org/2000/svg"
   xmlns="http://www.w3.org/2000/svg"
   xmlns:sodipodi="http://sodipodi.sourceforge.net/DTD/sodipodi-0.dtd"
   xmlns:inkscape="http://www.inkscape.org/namespaces/inkscape"
   version="1.1"
   x="0px"
   y="0px"
   width="3609.8193"
   height="371.16873"
   viewBox="-89.743 -209.813 3609.8193 371.16873"
   enable-background="new -89.743 -209.813 3557 842"
   xml:space="preserve"
   id="svg10"
   sodipodi:docname="logofullfinal.svg"
   inkscape:version="1.0.1 (3bc2e813f5, 2020-09-07, custom)"><metadata
   id="metadata14"><rdf:RDF><cc:Work
       rdf:about=""><dc:format>image/svg+xml</dc:format><dc:type
         rdf:resource="http://purl.org/dc/dcmitype/StillImage" /><dc:title /></cc:Work></rdf:RDF></metadata><sodipodi:namedview
   pagecolor="#ffffff"
   bordercolor="#666666"
   borderopacity="1"
   objecttolerance="10"
   gridtolerance="10"
   guidetolerance="10"
   inkscape:pageopacity="0"
   inkscape:pageshadow="2"
   inkscape:window-width="1920"
   inkscape:window-height="1049"
   id="namedview12"
   showgrid="false"
   fit-margin-top="0"
   fit-margin-left="0"
   fit-margin-right="0"
   fit-margin-bottom="0"
   inkscape:zoom="0.21913798"
   inkscape:cx="994.41109"
   inkscape:cy="-45.1571"
   inkscape:window-x="0"
   inkscape:window-y="0"
   inkscape:window-maximized="1"
   inkscape:current-layer="svg10"
   inkscape:document-rotation="0" />
<defs
   id="defs2">
</defs>
<path
   fill="#34669a"
   d="m -19.823,-118.55327 c 401.896,-214.354 460.957,20.452004 454.288,68.659004 70.556,-60.594004 534.426,-220.535004 474.855,94.273 -21.508,11.251 0,0 -19.912,10.484 -17.698,-318.297004 -475.118,-81.748 -475.118,-81.748 0,0 -16.641,-262.393004 -440.794,-77.062004"
   id="path4" />
<path
   fill="#34669a"
   d="m -42.449,-65.243266 c 357.895,-157.721004 444.251,11.74 433.523,62.3410004 412.421,-183.3960044 454.253,2.70899998 453.222,83.9789996 -34.297,15.863 -160.286,74.231996 -175.024,80.278996 168.552,-340.005 -460.424,-53.818 -457.842,-52.285 0,0 121.714,-272.938 -301.173,-83.776996"
   id="path6" />
<path
   d="m 1081.741,-169.813 h 32.0696 v 271.19784 h -32.0696 z"
   style="font-size:479px;font-family:Roboto-Regular;fill:#3c3c3b;stroke-width:0.745197"
   id="path16" /><path
   d="m 1180.913,-93.82184 h 32.0697 v 195.20668 h -32.0697 z m 0,-75.99116 h 32.0697 v 40.60996 h -32.0697 z"
   style="font-size:479px;font-family:Roboto-Regular;fill:#3c3c3b;stroke-width:0.745197"
   id="path18" /><path
   d="m 1420.2154,3.955788 q 0,-35.381208 -14.6405,-55.42475 -14.4663,-20.21783 -39.9129,-20.21783 -25.4464,0 -40.087,20.21783 -14.4662,20.043542 -14.4662,55.42475 0,35.381209 14.4662,55.599045 14.6406,20.043541 40.087,20.043541 25.4466,0 39.9129,-20.043541 14.6405,-20.217836 14.6405,-55.599045 z m -109.1066,-68.148041 q 10.1088,-17.429163 25.4465,-25.795177 15.5119,-8.54029 36.9499,-8.54029 35.5554,0 57.6906,28.235257 22.3092,28.23525 22.3092,74.248251 0,46.013001 -22.3092,74.248254 -22.1352,28.235248 -57.6906,28.235248 -21.438,0 -36.9499,-8.36599 -15.3377,-8.540306 -25.4465,-25.969475 v 29.281015 h -32.2441 V -169.813 h 32.2441 z"
   style="font-size:479px;font-family:Roboto-Regular;fill:#3c3c3b;stroke-width:0.745197"
   id="path20" /><path
   d="M 1673.6354,-4.235919 V 11.45033 h -147.4506 q 2.0915,33.115417 19.8692,50.544583 17.9521,17.254876 49.8474,17.254876 18.475,0 35.7299,-4.531583 17.4291,-4.531582 34.5096,-13.594748 v 30.326747 q -17.2549,7.320245 -35.3812,11.154665 -18.1264,3.83442 -36.7755,3.83442 -46.7102,0 -74.0739,-27.189501 -27.1896,-27.189501 -27.1896,-73.551084 0,-47.930207 25.7953,-75.991168 25.9694,-28.235257 69.8909,-28.235257 39.3898,0 62.2221,25.446587 23.0064,25.272297 23.0064,68.845214 z m -32.0695,-9.41175 q -0.3488,-26.318042 -14.8148,-42.004291 -14.2919,-15.686254 -37.9956,-15.686254 -26.841,0 -43.0501,15.163378 -16.0348,15.163373 -18.4751,42.701458 z"
   style="font-size:479px;font-family:Roboto-Regular;fill:#3c3c3b;stroke-width:0.745197"
   id="path22" /><path
   d="m 1839.3869,-63.843671 q -5.4032,-3.137247 -11.8519,-4.53158 -6.2746,-1.568624 -13.9434,-1.568624 -27.1893,0 -41.8299,17.777746 -14.4662,17.603459 -14.4662,50.718876 V 101.38484 h -32.244 V -93.82184 h 32.244 v 30.326753 q 10.1089,-17.777741 26.3181,-26.318043 16.2089,-8.71459 39.3899,-8.71459 3.3115,0 7.3201,0.52288 4.0087,0.34858 8.889,1.22004 z"
   style="font-size:479px;font-family:Roboto-Regular;fill:#3c3c3b;stroke-width:0.745197"
   id="path24" /><path
   d="m 1940.8246,-71.338214 q -25.7952,0 -40.7842,20.217834 -14.9891,20.043544 -14.9891,55.076168 0,35.032625 14.8148,55.25046 14.9889,20.043541 40.9585,20.043541 25.6209,0 40.6101,-20.217834 14.9889,-20.217834 14.9889,-55.076167 0,-34.684041 -14.9889,-54.901874 -14.9892,-20.392128 -40.6101,-20.392128 z m 0,-27.189506 q 41.83,0 65.7079,27.189506 23.8782,27.189505 23.8782,75.294002 0,47.930209 -23.8782,75.294001 -23.8779,27.189501 -65.7079,27.189501 -42.0043,0 -65.8822,-27.189501 -23.7038,-27.363792 -23.7038,-75.294001 0,-48.104497 23.7038,-75.294002 23.8779,-27.189506 65.8822,-27.189506 z"
   style="font-size:479px;font-family:Roboto-Regular;fill:#3c3c3b;stroke-width:0.745197"
   id="path26" /><path
   d="m 2060.5631,-93.82184 h 33.9868 l 61.0021,163.834171 61.0021,-163.834171 h 33.9869 l -73.2026,195.20668 h -43.5729 z"
   style="font-size:479px;font-family:Roboto-Regular;fill:#3c3c3b;stroke-width:0.745197"
   id="path28" /><path
   d="m 2294.8111,-93.82184 h 32.0696 v 195.20668 h -32.0696 z m 0,-75.99116 h 32.0696 v 40.60996 h -32.0696 z"
   style="font-size:479px;font-family:Roboto-Regular;fill:#3c3c3b;stroke-width:0.745197"
   id="path30" /><path
   d="m 2425.7042,-149.24658 v 55.42474 h 66.0564 v 24.923707 h -66.0564 V 37.071206 q 0,23.877959 6.4488,30.675329 6.623,6.797378 26.6666,6.797378 h 32.941 v 26.840927 h -32.941 q -37.1241,0 -51.2419,-13.769057 -14.1176,-13.943333 -14.1176,-50.544577 V -68.898133 h -23.5293 V -93.82184 h 23.5293 v -55.42474 z"
   style="font-size:479px;font-family:Roboto-Regular;fill:#3c3c3b;stroke-width:0.745197"
   id="path32" /><path
   d="m 2622.6536,3.258622 q -38.8669,0 -53.856,8.888875 -14.9891,8.888875 -14.9891,30.326749 0,17.080587 11.1546,27.189499 11.329,9.934629 30.6753,9.934629 26.6667,0 42.7016,-18.823501 16.2091,-18.997793 16.2091,-50.370292 V 3.258622 Z m 63.9652,-13.246167 V 101.38484 h -32.0697 V 71.755248 q -10.9804,17.777746 -27.3639,26.318042 -16.3833,8.366 -40.0869,8.366 -29.9783,0 -47.7561,-16.732003 -17.6034,-16.906291 -17.6034,-45.14154 0,-32.941125 21.9608,-49.673125 22.1352,-16.732001 65.8822,-16.732001 h 44.9673 v -3.137249 q 0,-22.135042 -14.6405,-34.161167 -14.4663,-12.200419 -40.7843,-12.200419 -16.7319,0 -32.5925,4.00871 -15.8605,4.00871 -30.5011,12.026126 v -29.629579 q 17.6034,-6.797383 34.1612,-10.108923 16.5578,-3.48584 32.244,-3.48584 42.3529,0 63.268,21.960762 20.9149,21.960749 20.9149,66.579413 z"
   style="font-size:479px;font-family:Roboto-Regular;fill:#3c3c3b;stroke-width:0.745197"
   id="path34" /><path
   d="M 2919.6467,-4.235919 V 11.45033 H 2772.196 q 2.0913,33.115417 19.8692,50.544583 17.9522,17.254876 49.8474,17.254876 18.4749,0 35.7297,-4.531583 17.4292,-4.531582 34.51,-13.594748 v 30.326747 q -17.2552,7.320245 -35.3813,11.154665 -18.1264,3.83442 -36.7756,3.83442 -46.7101,0 -74.074,-27.189501 -27.1895,-27.189501 -27.1895,-73.551084 0,-47.930207 25.7951,-75.991168 25.9696,-28.235257 69.891,-28.235257 39.3899,0 62.2223,25.446587 23.0064,25.272297 23.0064,68.845214 z m -32.0697,-9.41175 q -0.3485,-26.318042 -14.8148,-42.004291 -14.2919,-15.686254 -37.9955,-15.686254 -26.841,0 -43.05,15.163378 -16.035,15.163373 -18.475,42.701458 z"
   style="font-size:479px;font-family:Roboto-Regular;fill:#3c3c3b;stroke-width:0.745197"
   id="path36" />
</svg>
