<?xml version="1.0" encoding="UTF-8" standalone="no"?>
<svg
   xmlns:dc="http://purl.org/dc/elements/1.1/"
   xmlns:cc="http://creativecommons.org/ns#"
   xmlns:rdf="http://www.w3.org/1999/02/22-rdf-syntax-ns#"
   xmlns:svg="http://www.w3.org/2000/svg"
   xmlns="http://www.w3.org/2000/svg"
   xmlns:sodipodi="http://sodipodi.sourceforge.net/DTD/sodipodi-0.dtd"
   xmlns:inkscape="http://www.inkscape.org/namespaces/inkscape"
   version="1.1"
   id="Layer_1"
   x="0px"
   y="0px"
   width="1020px"
   height="141.948px"
   viewBox="0 0 1020 141.948"
   enable-background="new 0 0 1020 141.948"
   xml:space="preserve"
   sodipodi:docname="logofull.svg"
   inkscape:version="1.0.1 (3bc2e813f5, 2020-09-07)"><metadata
   id="metadata29"><rdf:RDF><cc:Work
       rdf:about=""><dc:format>image/svg+xml</dc:format><dc:type
         rdf:resource="http://purl.org/dc/dcmitype/StillImage" /></cc:Work></rdf:RDF></metadata><defs
   id="defs27" /><sodipodi:namedview
   pagecolor="#ffffff"
   bordercolor="#666666"
   borderopacity="1"
   objecttolerance="10"
   gridtolerance="10"
   guidetolerance="10"
   inkscape:pageopacity="0"
   inkscape:pageshadow="2"
   inkscape:window-width="1741"
   inkscape:window-height="858"
   id="namedview25"
   showgrid="false"
   inkscape:zoom="0.66266926"
   inkscape:cx="446.24615"
   inkscape:cy="59.197689"
   inkscape:window-x="100"
   inkscape:window-y="68"
   inkscape:window-maximized="0"
   inkscape:current-layer="Layer_1"
   inkscape:document-rotation="0" />
<g
   aria-label="liberovitae"
   transform="matrix(0.76359431,0,0,0.76359431,277.34201,117.00626)"
   id="text2"
   style="font-size:150px;font-family:FREEDOM;letter-spacing:6;fill:#333333;fill-opacity:1"><path
     d="M 14.135742,-113.96484 H 27.612305 V 0 H 14.135742 Z"
     style="font-size:150px;font-family:FREEDOM;letter-spacing:6;fill:#333333;fill-opacity:1"
     id="path31" /><path
     d="M 61.810547,-82.03125 H 75.287109 V 0 H 61.810547 Z m 0,-31.93359 h 13.476562 v 17.065426 H 61.810547 Z"
     style="font-size:150px;font-family:FREEDOM;letter-spacing:6;fill:#333333;fill-opacity:1"
     id="path33" /><path
     d="m 168.37207,-40.942383 q 0,-14.868164 -6.15234,-23.291015 -6.07911,-8.496094 -16.77246,-8.496094 -10.69336,0 -16.84571,8.496094 -6.0791,8.422851 -6.0791,23.291015 0,14.868164 6.0791,23.364258 6.15235,8.4228516 16.84571,8.4228516 10.69335,0 16.77246,-8.4228516 6.15234,-8.496094 6.15234,-23.364258 z m -45.84961,-28.637695 q 4.24805,-7.324219 10.69336,-10.839844 6.51855,-3.588867 15.52734,-3.588867 14.94141,0 24.24317,11.865234 9.375,11.865235 9.375,31.201172 0,19.335938 -9.375,31.2011721 -9.30176,11.8652343 -24.24317,11.8652343 -9.00879,0 -15.52734,-3.515625 -6.44531,-3.5888671 -10.69336,-10.9130864 V 0 h -13.5498 v -113.96484 h 13.5498 z"
     style="font-size:150px;font-family:FREEDOM;letter-spacing:6;fill:#333333;fill-opacity:1"
     id="path35" /><path
     d="m 280.86621,-44.384766 v 6.591797 h -61.96289 q 0.87891,13.916016 8.34961,21.240235 7.54394,7.2509762 20.94727,7.2509762 7.76367,0 15.01464,-1.9042972 7.32422,-1.904297 14.50196,-5.71289 v 12.7441403 q -7.25098,3.0761719 -14.86817,4.68750001 -7.61718,1.61132809 -15.4541,1.61132809 -19.62891,0 -31.12793,-11.4257812 -11.42578,-11.4257812 -11.42578,-30.9082032 0,-20.141601 10.83984,-31.933594 10.91309,-11.865234 29.37012,-11.865234 16.55274,0 26.14746,10.693359 9.66797,10.620118 9.66797,28.930664 z m -13.47656,-3.955078 q -0.14649,-11.05957 -6.22559,-17.651367 -6.00586,-6.591797 -15.96679,-6.591797 -11.2793,0 -18.09082,6.372071 -6.73829,6.37207 -7.76368,17.944335 z"
     style="font-size:150px;font-family:FREEDOM;letter-spacing:6;fill:#333333;fill-opacity:1"
     id="path37" /><path
     d="m 356.51953,-69.433594 q -2.27051,-1.318359 -4.98047,-1.904297 -2.63672,-0.659179 -5.85937,-0.659179 -11.42578,0 -17.57813,7.470703 -6.0791,7.397461 -6.0791,21.313476 V 0 h -13.5498 v -82.03125 h 13.5498 v 12.744141 q 4.24805,-7.470703 11.05957,-11.059571 6.81152,-3.662109 16.55274,-3.662109 1.3916,0 3.07617,0.219727 1.68457,0.146484 3.73535,0.512695 z"
     style="font-size:150px;font-family:FREEDOM;letter-spacing:6;fill:#333333;fill-opacity:1"
     id="path39" /><path
     d="m 405.14648,-72.583008 q -10.83984,0 -17.13867,8.496094 -6.29883,8.422852 -6.29883,23.144531 0,14.72168 6.22559,23.217774 6.29883,8.4228512 17.21191,8.4228512 10.76661,0 17.06543,-8.4960942 6.29883,-8.496093 6.29883,-23.144531 0,-14.575195 -6.29883,-23.071289 -6.29882,-8.569336 -17.06543,-8.569336 z m 0,-11.425781 q 17.57813,0 27.61231,11.425781 10.03418,11.425781 10.03418,31.640625 0,20.141602 -10.03418,31.6406252 -10.03418,11.4257812 -27.61231,11.4257812 -17.65136,0 -27.68554,-11.4257812 Q 367.5,-20.800781 367.5,-40.942383 q 0,-20.214844 9.96094,-31.640625 10.03418,-11.425781 27.68554,-11.425781 z"
     style="font-size:150px;font-family:FREEDOM;letter-spacing:6;fill:#333333;fill-opacity:1"
     id="path41" /><path
     d="m 461.46387,-82.03125 h 14.28222 l 25.63477,68.847656 25.63476,-68.847656 h 14.28223 L 510.53613,0 h -18.31054 z"
     style="font-size:150px;font-family:FREEDOM;letter-spacing:6;fill:#333333;fill-opacity:1"
     id="path43" /><path
     d="m 565.90137,-82.03125 h 13.47656 V 0 h -13.47656 z m 0,-31.93359 h 13.47656 v 17.065426 h -13.47656 z"
     style="font-size:150px;font-family:FREEDOM;letter-spacing:6;fill:#333333;fill-opacity:1"
     id="path45" /><path
     d="m 626.90625,-105.32227 v 23.29102 h 27.75879 v 10.473633 h -27.75879 v 44.53125 q 0,10.03418 2.70996,12.890625 2.7832,2.856445 11.20606,2.856445 h 13.84277 V 0 h -13.84277 q -15.60059,0 -21.53321,-5.7861328 -5.93261,-5.8593752 -5.93261,-21.2402342 v -44.53125 h -9.8877 V -82.03125 h 9.8877 v -23.29102 z"
     style="font-size:150px;font-family:FREEDOM;letter-spacing:6;fill:#333333;fill-opacity:1"
     id="path47" /><path
     d="m 715.66992,-41.235352 q -16.33301,0 -22.63183,3.735352 -6.29883,3.735352 -6.29883,12.744141 0,7.177734 4.6875,11.425781 4.76074,4.1748046 12.89062,4.1748046 11.20606,0 17.94434,-7.9101566 6.81152,-7.983398 6.81152,-21.166992 v -3.00293 z m 26.87988,-5.566406 V 0 h -13.47656 v -12.451172 q -4.61426,7.4707033 -11.49902,11.0595704 -6.88477,3.515625 -16.8457,3.515625 -12.59766,0 -20.06836,-7.03125 -7.39746,-7.1044924 -7.39746,-18.9697264 0,-13.842774 9.22851,-20.874024 9.30176,-7.03125 27.68555,-7.03125 h 18.89648 v -1.318359 q 0,-9.301758 -6.15234,-14.355469 -6.0791,-5.126953 -17.13867,-5.126953 -7.03125,0 -13.69629,1.684571 -6.66504,1.68457 -12.81739,5.05371 v -12.451171 q 7.39747,-2.856446 14.35547,-4.248047 6.95801,-1.464844 13.54981,-1.464844 17.79785,0 26.58691,9.228516 8.78906,9.228515 8.78906,27.978515 z"
     style="font-size:150px;font-family:FREEDOM;letter-spacing:6;fill:#333333;fill-opacity:1"
     id="path49" /><path
     d="m 846.47461,-44.384766 v 6.591797 h -61.96289 q 0.8789,13.916016 8.34961,21.240235 7.54394,7.2509762 20.94726,7.2509762 7.76368,0 15.01465,-1.9042972 7.32422,-1.904297 14.50196,-5.71289 v 12.7441403 q -7.25098,3.0761719 -14.86817,4.68750001 -7.61719,1.61132809 -15.4541,1.61132809 -19.62891,0 -31.12793,-11.4257812 -11.42578,-11.4257812 -11.42578,-30.9082032 0,-20.141601 10.83984,-31.933594 10.91309,-11.865234 29.37012,-11.865234 16.55273,0 26.14746,10.693359 9.66797,10.620118 9.66797,28.930664 z m -13.47656,-3.955078 q -0.14649,-11.05957 -6.22559,-17.651367 -6.00586,-6.591797 -15.9668,-6.591797 -11.27929,0 -18.09082,6.372071 -6.73828,6.37207 -7.76367,17.944335 z"
     style="font-size:150px;font-family:FREEDOM;letter-spacing:6;fill:#333333;fill-opacity:1"
     id="path51" /></g>
<path
   display="none"
   fill="#005870"
   d="M205.547,41.286c1.243-4.951,1.268-9.397,0.073-13.332c-1.199-3.936-3.731-7.267-7.607-9.99  c-3.876-2.722-9.512-4.516-16.908-5.382c-3.062-0.356-6.28-0.381-9.653-0.066c-3.373,0.313-7.045,1.017-11.02,2.116  c-3.974,1.098-8.318,2.64-13.031,4.616c-4.716,1.98-9.904,4.463-15.561,7.449c0.133-2.962-0.211-5.7-1.034-8.216  c-0.825-2.515-2.245-4.766-4.256-6.752c-2.013-1.982-4.667-3.651-7.963-5.006c-3.299-1.352-7.327-2.307-12.088-2.865  c-6.208-0.725-13.088-0.06-20.644,1.997c-7.221,1.966-15.404,5.385-24.526,10.218c-3.63,7.913-7.751,16.877-7.751,16.877  c8.958-5.277,16.727-9.17,23.303-11.677c6.576-2.505,12.289-3.477,17.136-2.908c3.909,0.456,6.95,1.481,9.127,3.077  c2.176,1.594,3.561,3.691,4.162,6.293c0.597,2.6,0.483,5.602-0.336,9.002c-0.826,3.406-4.432,11.094-4.432,11.094  s42.476-15.313,49.009-17.826c6.536-2.511,12.227-3.485,17.071-2.916c3.909,0.458,6.977,1.486,9.193,3.085  c2.217,1.598,3.625,3.699,4.225,6.299c0.596,2.603,0.443,5.599-0.463,8.988c-0.908,3.394-2.428,7.086-4.557,11.08  C177.017,56.541,169.554,60.837,205.547,41.286z"
   id="path4" />
<path
   display="none"
   fill="#005870"
   d="M202.456,42.908c1.18-4.421,1.155-8.4-0.07-11.936c-1.23-3.536-3.775-6.544-7.644-9.022  c-3.871-2.479-9.472-4.146-16.811-5c-3.036-0.352-6.228-0.407-9.564-0.163c-3.337,0.245-6.971,0.836-10.894,1.775  c-3.929,0.943-8.213,2.273-12.864,3.995c-4.65,1.723-9.763,3.889-15.334,6.501c0.1-2.648-0.269-5.104-1.114-7.366  c-0.843-2.261-2.273-4.288-4.289-6.086c-2.015-1.799-4.663-3.32-7.94-4.568c-3.283-1.245-7.282-2.145-12.007-2.693  C97.765,7.63,90.957,8.152,83.493,9.912c-7.134,1.683-15.205,4.652-24.19,8.884C55.789,25.841,51.8,33.821,51.8,33.821  c8.821-4.629,16.477-8.03,22.967-10.202c6.485-2.174,12.135-2.98,16.942-2.423c3.879,0.452,6.904,1.401,9.078,2.854  c2.171,1.448,3.567,3.342,4.188,5.676c0.622,2.335,0.542,5.019-0.235,8.056c-0.78,3.037-4.271,9.883-4.271,9.883  s41.917-13.256,48.365-15.435c6.446-2.176,12.075-2.984,16.881-2.427c3.879,0.452,6.927,1.404,9.141,2.86  c2.215,1.453,3.631,3.35,4.255,5.683c0.619,2.334,0.499,5.015-0.363,8.042c-0.865,3.029-2.329,6.315-4.396,9.868  C174.352,56.256,167.007,60.022,202.456,42.908z"
   id="path6" />
<path
   display="none"
   fill="#005870"
   d="M197.299,45.427c1.171-4.205,1.182-7.996,0.026-11.363c-1.154-3.368-3.588-6.233-7.294-8.599  c-3.711-2.363-9.096-3.956-16.161-4.778c-2.925-0.339-5.998-0.394-9.216-0.166c-3.22,0.229-6.725,0.788-10.516,1.68  c-3.791,0.894-7.936,2.156-12.429,3.789c-4.496,1.635-9.439,3.693-14.833,6.173c0.12-2.521-0.218-4.859-1.014-7.013  c-0.797-2.154-2.16-4.087-4.085-5.802c-1.928-1.713-4.468-3.166-7.619-4.356c-3.155-1.19-7.003-2.05-11.55-2.578  c-5.931-0.687-12.499-0.196-19.707,1.469c-6.889,1.596-14.691,4.417-23.386,8.435c-3.441,6.703-7.35,14.299-7.35,14.299  c8.538-4.399,15.943-7.629,22.214-9.69c6.271-2.063,11.723-2.824,16.352-2.287c3.733,0.434,6.643,1.341,8.728,2.724  c2.079,1.384,3.409,3.189,3.99,5.411c0.579,2.224,0.482,4.78-0.29,7.67c-0.775,2.892-4.196,9.406-4.196,9.406  s43.374-13.636,46.74-14.645c3.367-1.011,11.662-2.832,16.29-2.293c3.734,0.434,6.666,1.343,8.786,2.732  c2.123,1.387,3.474,3.194,4.055,5.416c0.579,2.224,0.442,4.776-0.413,7.656c-0.854,2.882-2.295,6.011-4.317,9.391  C170.104,58.106,162.998,61.686,197.299,45.427z"
   id="path8" />
<path
   display="none"
   fill="#005870"
   d="M745.743,41.355c1.167-4.41,1.149-8.381-0.054-11.906c-1.208-3.525-3.714-6.522-7.526-8.992  c-3.813-2.467-9.334-4.123-16.567-4.965c-2.994-0.348-6.14-0.398-9.433-0.15c-3.293,0.248-6.874,0.842-10.745,1.787  c-3.871,0.943-8.103,2.279-12.688,4c-4.59,1.725-9.634,3.893-15.132,6.506c0.102-2.643-0.259-5.092-1.088-7.346  c-0.83-2.254-2.238-4.277-4.222-6.07c-1.984-1.789-4.595-3.305-7.827-4.545c-3.234-1.238-7.18-2.129-11.836-2.672  c-6.071-0.705-12.787-0.176-20.149,1.59c-7.035,1.688-14.999,4.664-23.866,8.895c-3.473,7.033-7.415,15-7.415,15  c8.701-4.629,16.255-8.033,22.658-10.209c6.399-2.176,11.973-2.99,16.713-2.438c3.823,0.443,6.805,1.389,8.945,2.834  c2.141,1.443,3.514,3.33,4.125,5.658c0.607,2.328,0.525,5.008-0.243,8.037c-0.774,3.033-4.227,9.865-4.227,9.865  s41.354-13.277,47.716-15.459c6.36-2.182,11.909-2.998,16.649-2.445c3.822,0.445,6.828,1.393,9.01,2.842  c2.183,1.447,3.576,3.338,4.188,5.664c0.606,2.33,0.484,5.004-0.369,8.023c-0.854,3.021-2.305,6.305-4.348,9.852  C718.012,54.711,710.762,58.479,745.743,41.355z"
   id="path10" />
<path
   display="none"
   fill="#005870"
   d="M744.454,42.746c1.168-4.412,1.15-8.383-0.055-11.908c-1.208-3.525-3.714-6.523-7.522-8.992  c-3.814-2.467-9.337-4.123-16.57-4.965c-2.994-0.348-6.142-0.398-9.433-0.15s-6.875,0.842-10.743,1.785  c-3.875,0.945-8.104,2.279-12.691,4.002c-4.587,1.725-9.632,3.893-15.13,6.506c0.103-2.643-0.257-5.092-1.089-7.348  c-0.828-2.254-2.236-4.275-4.222-6.066c-1.984-1.791-4.594-3.307-7.825-4.547c-3.234-1.238-7.179-2.131-11.836-2.672  c-6.072-0.705-12.787-0.176-20.149,1.59c-7.036,1.688-15,4.662-23.866,8.895c-3.473,7.033-7.417,15-7.417,15  c8.704-4.629,16.257-8.033,22.659-10.209c6.399-2.176,11.971-2.988,16.711-2.438c3.824,0.445,6.807,1.389,8.948,2.834  c2.14,1.443,3.514,3.33,4.123,5.658c0.609,2.328,0.527,5.006-0.242,8.037c-0.772,3.031-4.224,9.865-4.224,9.865  s41.351-13.279,47.713-15.461c6.358-2.18,11.911-2.994,16.649-2.443c3.824,0.445,6.828,1.393,9.009,2.842  c2.184,1.447,3.577,3.338,4.188,5.664c0.607,2.328,0.486,5.002-0.368,8.023c-0.855,3.023-2.305,6.305-4.349,9.852  C716.723,56.1,709.475,59.867,744.454,42.746z"
   id="path12" />
<path
   display="none"
   fill="#005870"
   d="M741.68,44.248c1.192-4.406,1.223-8.373,0.08-11.891c-1.142-3.52-3.568-6.506-7.274-8.963  c-3.712-2.455-9.104-4.096-16.187-4.922c-2.934-0.34-6.017-0.383-9.244-0.129c-3.231,0.256-6.75,0.857-10.556,1.809  c-3.809,0.953-7.971,2.295-12.484,4.025c-4.519,1.732-9.487,3.91-14.908,6.531c0.133-2.639-0.195-5.084-0.982-7.334  c-0.788-2.25-2.146-4.266-4.069-6.051c-1.926-1.783-4.466-3.291-7.621-4.521c-3.159-1.23-7.015-2.111-11.573-2.643  c-5.944-0.689-12.535-0.145-19.772,1.633c-6.917,1.703-14.759,4.693-23.498,8.939c-3.484,7.031-7.439,14.998-7.439,14.998  c8.584-4.645,16.028-8.061,22.328-10.248c6.301-2.189,11.771-3.012,16.412-2.473c3.743,0.436,6.656,1.371,8.74,2.809  c2.08,1.438,3.403,3.32,3.977,5.643c0.57,2.324,0.461,5-0.328,8.027c-0.791,3.029-4.254,9.863-4.254,9.863  s43.572-14.479,46.953-15.551c3.383-1.074,11.711-3.02,16.352-2.479c3.742,0.436,6.681,1.373,8.8,2.816  c2.123,1.441,3.469,3.326,4.041,5.648c0.569,2.324,0.42,4.996-0.451,8.014c-0.872,3.02-2.331,6.301-4.377,9.848  C714.341,57.648,707.196,61.428,741.68,44.248z"
   id="path14" />
<path
   fill="#005870"
   d="m 34.762931,57.170787 c 83.892649,-44.74534 96.221219,4.269394 94.828089,14.33162 14.72794,-12.648313 111.55773,-46.035024 99.12301,19.678439 -4.4897,2.3483 0,0 -4.15654,2.188433 -3.69441,-66.441598 -99.17809,-17.06414 -99.17809,-17.06414 0,0 -3.47409,-54.772638 -92.010941,-16.086128"
   id="path16"
   style="fill:#2d5f88;fill-opacity:1;stroke-width:1.34342" />
<path
   fill="#005870"
   d="m 30.040804,68.298347 c 74.706336,-32.923231 92.732356,2.450401 90.491526,13.013724 86.09049,-38.282139 94.82273,0.565581 94.60644,17.53031 -7.15776,3.311529 -33.45658,15.495019 -36.53166,16.757839 35.18151,-70.97296 -96.111074,-11.2337 -95.572357,-10.91396 0,0 25.406797,-56.973161 -62.866753,-17.488659"
   id="path18"
   style="fill:#2d5f88;fill-opacity:1;stroke-width:1.34342" />


</svg>
